<?xml version="1.0" encoding="UTF-8" standalone="no"?>
<!-- Created with Inkscape (http://www.inkscape.org/) -->
<svg xmlns:dc="http://purl.org/dc/elements/1.1/" xmlns:cc="http://creativecommons.org/ns#" xmlns:rdf="http://www.w3.org/1999/02/22-rdf-syntax-ns#" xmlns:svg="http://www.w3.org/2000/svg" xmlns="http://www.w3.org/2000/svg" version="1.1" width="750" height="600" id="svg2"><script xmlns="">var pmblock = 1.4;</script><link xmlns="" type="text/css" rel="stylesheet" id="dark-mode-custom-link"/><link xmlns="" type="text/css" rel="stylesheet" id="dark-mode-general-link"/><style xmlns="" lang="en" type="text/css" id="dark-mode-custom-style"/><style xmlns="" lang="en" type="text/css" id="dark-mode-native-style"/><style xmlns="" lang="en" type="text/css" id="dark-mode-native-sheet"/>
  <defs id="defs4"/>
  <metadata id="metadata7">
    <rdf:RDF>
      <cc:Work rdf:about="">
        <dc:format>image/svg+xml</dc:format>
        <dc:type rdf:resource="http://purl.org/dc/dcmitype/StillImage"/>
        <dc:title/>
      </cc:Work>
    </rdf:RDF>
  </metadata>
  <g transform="translate(0,-452.36218)" id="layer1">
    <rect width="600" height="450" x="75" y="527.36218" id="rect3755" style="fill:#ffffff;fill-opacity:1;fill-rule:nonzero;stroke:none"/>
    <g id="text3757" style="font-size:443.03796387px;font-style:normal;font-variant:normal;font-weight:normal;font-stretch:normal;text-align:center;line-height:100%;letter-spacing:0px;word-spacing:0px;writing-mode:lr-tb;text-anchor:middle;fill:none;stroke:#000000;stroke-width:3.16455698px;stroke-linecap:butt;stroke-linejoin:miter;stroke-opacity:1;font-family:Roadgeek 2005 Series C;-inkscape-font-specification:Roadgeek 2005 Series C">
      <path d="m 320.03112,900.77991 -29.24051,-83.29114 -92.59493,0 -29.24051,83.29114 -50.06329,0 102.34177,-296.83544 46.51899,0 102.34177,296.83544 -50.06329,0 m -74.87342,-214.43038 -30.56962,83.29114 59.36709,0 -28.79747,-83.29114" id="path3824" style="line-height:100%;fill:#000000;fill-opacity:1;stroke:none;font-family:Roadgeek 2005 Series D;-inkscape-font-specification:Roadgeek 2005 Series D"/>
      <path d="m 617.03269,817.48877 c -2.3e-4,7.97476 -1.18167,15.94943 -3.5443,23.92405 -2.3631,7.97473 -5.75972,15.35869 -10.18987,22.1519 -4.13524,6.79328 -9.15634,12.84812 -15.06329,18.16455 -5.61202,5.02112 -11.96223,9.00845 -19.05064,11.96203 -5.31664,2.06752 -11.9622,3.83967 -19.93671,5.31646 -7.67948,1.18143 -14.91576,1.77215 -21.70886,1.77215 l -112.53164,0 0,-296.83544 112.53164,0 c 11.81419,3e-4 22.74245,1.92013 32.78481,5.75949 10.04201,3.83995 18.75508,9.1564 26.13924,15.94937 7.38376,6.49816 13.14324,14.32516 17.27848,23.48101 4.1348,9.15636 6.20231,19.05087 6.20254,29.68355 -2.3e-4,28.64998 -13.88208,50.94953 -41.64557,66.89873 15.6538,7.38411 27.61581,17.13094 35.88607,29.24051 8.56517,12.10981 12.84787,26.28701 12.8481,42.53164 M 562.98206,681.03308 c -1.8e-4,-20.08415 -10.78076,-30.12633 -32.34177,-30.12658 l -68.67088,0 0,72.65822 56.26582,0 c 6.7931,1.8e-4 12.10955,-0.44286 15.94936,-1.32911 3.83951,-1.18126 7.82685,-3.39644 11.96203,-6.64557 11.22345,-8.86057 16.83526,-20.37954 16.83544,-34.55696 m 6.20253,137.34177 c -1.9e-4,-9.74675 -2.65841,-18.75518 -7.97468,-27.02532 -5.02127,-8.56528 -11.81452,-14.47245 -20.37975,-17.72152 -3.2491,-1.1813 -6.055,-1.77202 -8.41772,-1.77215 -2.36302,-0.29523 -6.055,-0.44291 -11.07595,-0.44304 l -59.36708,0 0,81.51899 70.88607,0 c 24.21923,4e-5 36.32892,-11.51893 36.32911,-34.55696" id="path3826" style="line-height:100%;fill:#000000;fill-opacity:1;stroke:none;font-family:Roadgeek 2005 Series D;-inkscape-font-specification:Roadgeek 2005 Series D"/>
    </g>
  </g>
</svg>