<?xml version="1.0" encoding="iso-8859-1"?>
<!-- Uploaded to: SVG Repo, www.svgrepo.com, Generator: SVG Repo Mixer Tools -->
<svg height="800px" width="800px" version="1.1" id="Layer_1" xmlns="http://www.w3.org/2000/svg" xmlns:xlink="http://www.w3.org/1999/xlink" 
	 viewBox="0 0 512 512" xml:space="preserve">
<g>
	<path style="fill:#DD4A5F;" d="M146.286,201.143c-30.299,0-54.857,24.558-54.857,54.857s24.558,54.857,54.857,54.857
		s54.857-24.558,54.857-54.857S176.585,201.143,146.286,201.143"/>
	<path style="fill:#DD4A5F;" d="M256,301.714c-30.299,0-54.857,24.558-54.857,54.857c0,30.299,24.558,54.857,54.857,54.857
		s54.857-24.558,54.857-54.857C310.857,326.272,286.299,301.714,256,301.714"/>
	<path style="fill:#DD4A5F;" d="M365.714,402.286c-30.299,0-54.857,24.558-54.857,54.857c0,30.299,24.558,54.857,54.857,54.857
		c30.299,0,54.857-24.558,54.857-54.857C420.571,426.843,396.014,402.286,365.714,402.286"/>
	<path style="fill:#DD4A5F;" d="M256,210.286c30.299,0,54.857-24.558,54.857-54.857S286.299,100.571,256,100.571
		s-54.857,24.558-54.857,54.857S225.701,210.286,256,210.286"/>
	<path style="fill:#DD4A5F;" d="M365.714,109.714c30.299,0,54.857-24.558,54.857-54.857S396.014,0,365.714,0
		c-30.299,0-54.857,24.558-54.857,54.857S335.415,109.714,365.714,109.714"/>
</g>
</svg>