<?xml version="1.0" encoding="utf-8"?>
<!-- Svg Vector Icons : http://www.onlinewebfonts.com/icon -->
<!DOCTYPE svg PUBLIC "-//W3C//DTD SVG 1.1//EN" "http://www.w3.org/Graphics/SVG/1.1/DTD/svg11.dtd">
<svg version="1.1" xmlns="http://www.w3.org/2000/svg" xmlns:xlink="http://www.w3.org/1999/xlink" x="0px" y="0px" viewBox="0 0 1000 1000" enable-background="new 0 0 1000 1000" xml:space="preserve">
<metadata> Svg Vector Icons : http://www.onlinewebfonts.com/icon </metadata>
<g><path d="M539.7,893.6c-10.4,8.9-16.1,22.2-16.1,35.8v27.2H492c0,0-0.2-7-0.2-19.5c0-10.4,2-20.6,5.7-30.4c8.8-22.7,10.4-47.2,10.4-51.3V742.5c-2.7,0-5.4,0-7.7,0c-7.9,0-15.9-0.2-23.6-0.4V855c0,7.7-5.2,23.6-9.5,38.3c-0.7-0.7-4.6-1.8-5.7-2.5c-26.1-22.9-68.3-73.3-74.2-154.5c-145.2-16.6-262.5-64.9-327.3-131.6v180.6C61.9,898.4,258,990,500,990c242,0,438.1-91.6,440.1-204.8V605.2C875.2,672,757.9,720.3,612.5,736.8C605.9,823.3,564.7,872.1,539.7,893.6z"/><path d="M59.9,210.5C60.9,99.3,254.3,9.5,491.8,10c237.5,0.5,429.1,91,428.1,202.3c-1.1,111.2-194.4,201-431.9,200.5c-236-0.5-427-90-428.1-200.5V210.5z"/><path d="M387.3,696.7c7.5-84.1,59.7-152.5,89.1-185.1v191.7c7.7,0.2,15.7,0.4,23.6,0.4c2.7,0,5.4,0,7.7,0V493.9c15.2,14.3,99.3,83.5,105.5,203c187.1-23.2,325.3-102.8,326.7-197.8V318.5C859.5,401.5,696.7,456,500,456S140.9,401.5,59.9,318.1v180.6C61.3,593.7,199.9,673.5,387.3,696.7z"/></g>
</svg>