<?xml version="1.0" encoding="utf-8"?>
<!-- Svg Vector Icons : http://www.onlinewebfonts.com/icon -->
<!DOCTYPE svg PUBLIC "-//W3C//DTD SVG 1.1//EN" "http://www.w3.org/Graphics/SVG/1.1/DTD/svg11.dtd">
<svg version="1.1" xmlns="http://www.w3.org/2000/svg" xmlns:xlink="http://www.w3.org/1999/xlink" x="0px" y="0px" viewBox="0 0 1000 1000" enable-background="new 0 0 1000 1000" xml:space="preserve">
<metadata> Svg Vector Icons : http://www.onlinewebfonts.com/icon </metadata>
<g><g transform="translate(0.000000,326.000000) scale(0.100000,-0.100000)"><path d="M4488.8,732.4C2417.8,611.3,743.8-126,242.6-1136.2C130.7-1363.1,100-1490.3,100-1741.7s29.1-377.1,142.6-605.5c421.6-858.4,1724.5-1539.1,3410.8-1784.3c478.3-70.5,694.4-84.3,1326-84.3c616.2-1.5,763.4,6.1,1241.7,67.4c1122.1,145.6,2109.3,493.6,2806.8,990.3c159.4,113.4,450.7,392.4,548.8,525.8c429.2,579.4,430.8,1204.9,7.7,1767.5c-116.5,157.9-384.8,417-556.5,539.6C8252.1,231.2,7156.1,582.2,5799.4,711C5629.3,727.8,4672.7,743.2,4488.8,732.4z M4987,140.7c-9.2-29.1-130.3-663.7-130.3-685.2c0-12.3,104.2-16.9,366.4-16.9c257.5,0,401.6-6.1,482.9-23c343.4-64.4,484.4-231.5,464.5-542.7c-7.7-104.2-125.7-754.2-242.2-1315.3l-15.3-81.2H5617h-294.3l118,610.1c70.5,354.1,119.6,648.4,121.1,705.1c0,87.4-4.6,102.7-42.9,141c-65.9,64.4-134.9,76.7-458.3,76.7h-294.3l-15.3-79.7c-41.4-203.9-277.5-1430.2-277.5-1440.9c0-6.1-130.3-12.3-291.3-12.3c-159.4,0-291.3,4.6-291.3,10.7c0,13.8,507.4,2629,513.5,2653.5c4.6,13.8,78.2,18.4,297.4,18.4C4928.7,159.1,4991.6,154.5,4987,140.7z M3397.3-585.9c302-61.3,501.3-234.5,577.9-502.8c42.9-145.6,26.1-433.8-35.3-619.3c-61.3-190.1-153.3-338.8-292.8-478.3c-136.4-136.4-256-213.1-415.4-266.7c-177.8-59.8-285.1-70.5-685.2-70.5c-338.8,0-371-1.5-378.6-26.1c-4.6-15.3-36.8-177.8-72.1-360.2L2033-3244h-289.7c-159.4,0-289.7,4.6-289.7,12.3c-1.5,6.1,115,608.6,256,1339.8l257.5,1330.6h656.1C3161.2-561.3,3300.7-565.9,3397.3-585.9z M7976.2-584.3c430.8-90.4,651.5-417,593.3-876.8c-21.5-171.7-84.3-364.8-157.9-492.1c-79.7-134.9-321.9-367.9-453.8-436.9c-206.9-107.3-294.3-122.6-775.7-130.3c-343.4-4.6-427.7-10.7-435.4-27.6c-4.6-10.7-36.8-170.2-72.1-354.1l-65.9-334.2l-295.8-4.6l-294.3-3.1l7.7,33.7c4.6,19.9,119.6,608.6,256,1307.6c136.4,700.5,251.4,1287.7,256,1307.6l7.7,33.7h662.2C7729.4-561.3,7891.9-565.9,7976.2-584.3z"/><path d="M2476-986c-4.6-7.7-53.7-249.9-108.8-541.1c-56.7-291.3-107.3-541.1-111.9-558c-7.7-27.6,3.1-27.6,280.5-19.9c312.7,7.7,413.9,26.1,547.3,99.6c177.8,95,302,361.8,303.5,650c1.5,236.1-84.3,328-346.4,364.8C2914.4-973.7,2485.2-970.6,2476-986z"/><path d="M7042.6-1007.4c-23-101.2-208.5-1070-208.5-1086.8c0-27.6,544.2-10.7,654.6,19.9c256,72.1,392.4,233,455.3,536.5c46,219.2,26,349.5-65.9,441.5c-88.9,88.9-173.2,107.3-525.8,116.5l-302,9.2L7042.6-1007.4z"/></g></g>
</svg>