<?xml version="1.0" encoding="utf-8"?>
<!-- Generator: Adobe Illustrator 22.1.0, SVG Export Plug-In . SVG Version: 6.00 Build 0)  -->
<svg version="1.1" id="Layer_1" xmlns="http://www.w3.org/2000/svg" xmlns:xlink="http://www.w3.org/1999/xlink" x="0px" y="0px"
	 viewBox="0 0 32 32" style="enable-background:new 0 0 32 32;" xml:space="preserve">
<title>sass</title>
<path d="M16,0c8.8,0,16,7.2,16,16s-7.2,16-16,16S0,24.8,0,16S7.2,0,16,0z M12.8,21.3c0.2,0.9,0.2,1.7,0,2.4L12.7,24
	c0,0.1-0.1,0.2-0.1,0.2c-0.2,0.4-0.4,0.7-0.7,1.1c-0.9,1-2.2,1.4-2.8,1.1c-0.6-0.3-0.3-1.8,0.8-2.9c1.2-1.2,2.8-2,2.8-2v0L12.8,21.3
	z M26,6.8c-0.7-2.8-5.4-3.8-9.9-2.2C13.5,5.6,10.6,7.1,8.5,9c-2.5,2.3-2.8,4.3-2.7,5.1c0.6,2.9,4.6,4.9,6.3,6.3v0
	c-0.5,0.2-4.1,2-4.9,3.9c-0.9,2,0.1,3.4,0.8,3.5c2.1,0.6,4.3-0.5,5.4-2.2c1.1-1.7,1-3.8,0.5-4.9c0.7-0.2,1.4-0.3,2.4-0.1
	c2.8,0.3,3.4,2.1,3.2,2.8s-0.7,1.1-0.9,1.3c-0.2,0.1-0.3,0.2-0.2,0.2c0,0.1,0.1,0.1,0.3,0.1c0.2,0,1.5-0.6,1.5-2
	c0.1-1.7-1.6-3.6-4.5-3.6c-1.2,0-2,0.1-2.5,0.3c0-0.1-0.1-0.1-0.1-0.1c-1.8-1.9-5.1-3.3-5-5.9c0-0.9,0.4-3.4,6.4-6.4
	c4.9-2.5,8.9-1.8,9.6-0.3c1,2.1-2.1,6.1-7.2,6.7c-2,0.2-3-0.5-3.2-0.8c-0.3-0.3-0.3-0.3-0.4-0.3c-0.2,0.1-0.1,0.3,0,0.5
	c0.2,0.4,0.8,1.1,1.9,1.5c0.9,0.3,3.2,0.5,6-0.6c3.1-1.2,5.5-4.5,4.8-7.3L26,6.8z"/>
</svg>
