<?xml version="1.0" encoding="iso-8859-1"?>
<!-- Generator: Adobe Illustrator 19.0.0, SVG Export Plug-In . SVG Version: 6.00 Build 0)  -->
<svg version="1.1" id="Layer_1" xmlns="http://www.w3.org/2000/svg" xmlns:xlink="http://www.w3.org/1999/xlink" x="0px" y="0px"
	 viewBox="0 0 512.006 512.006" style="enable-background:new 0 0 512.006 512.006;" xml:space="preserve">
<g transform="translate(0 -1)">
	<g>
		<g>
			<path d="M490.67,385.006H320.003c-5.675,0-11.093,2.24-15.083,6.251l-15.083,15.083h-67.669l-15.083-15.083
				c-3.989-4.011-9.408-6.251-15.083-6.251H21.337c-11.797,0-21.333,9.557-21.333,21.333v64c0,23.531,19.136,42.667,42.667,42.667
				h426.667c23.531,0,42.667-19.136,42.667-42.667v-64C512.003,394.564,502.467,385.006,490.67,385.006z"/>
			<path d="M343.545,198.154c8.917,0,16.192-7.253,16.192-16.192v-16.171c0-8.939-7.275-16.192-16.192-16.192
				c-8.917,0-16.192,7.253-16.192,16.192v16.171C327.353,190.901,334.627,198.154,343.545,198.154z"/>
			<path d="M42.659,342.333h140.501l15.083,15.083c4.011,4.011,9.429,6.251,15.083,6.251h85.333c5.675,0,11.093-2.24,15.083-6.251
				l15.104-15.083h140.48c11.797,0,21.333-9.536,21.333-21.333V43.667C490.659,20.136,471.523,1,447.993,1h-384
				C40.483,1,21.326,20.136,21.326,43.667V321C21.326,332.797,30.883,342.333,42.659,342.333z M311.182,165.779
				c0-17.835,14.507-32.363,32.363-32.363c17.856,0,32.363,14.528,32.363,32.363v16.192c0,17.856-14.507,32.363-32.363,32.363
				c-17.856,0-32.363-14.507-32.363-32.363V165.779z M230.265,141.501c0-4.459,3.605-8.085,8.085-8.085h48.555
				c4.459,0,8.085,3.627,8.085,8.085c0,4.48-3.627,8.107-8.085,8.107h-40.469v16.171h24.277c4.48,0,8.085,3.627,8.085,8.107
				c0,4.459-3.605,8.085-8.085,8.085h-24.277v16.192h40.469c4.459,0,8.085,3.605,8.085,8.085c0,4.459-3.627,8.085-8.085,8.085
				H238.35c-4.48,0-8.085-3.627-8.085-8.085V141.501z M173.603,133.416h12.843c9.536,0,18.517,3.712,25.259,10.453
				c3.157,3.179,3.157,8.299,0,11.456c-3.157,3.157-8.277,3.157-11.456,0c-3.669-3.691-8.597-5.717-13.803-5.717h-12.843
				c-4.459,0-8.085,3.627-8.085,8.085s3.627,8.085,8.085,8.085h8.107h8.085c13.397,0,24.277,10.901,24.277,24.277
				c0,13.397-10.88,24.277-24.277,24.277h-12.843c-9.536,0-18.496-3.712-25.237-10.453c-3.179-3.157-3.179-8.277,0-11.456
				c3.157-3.157,8.277-3.157,11.435,0c3.691,3.691,8.597,5.739,13.803,5.739h12.843c4.459,0,8.085-3.648,8.085-8.107
				s-3.627-8.085-8.085-8.085h-8.085h-8.107c-13.376,0-24.277-10.88-24.277-24.277C149.326,144.317,160.227,133.416,173.603,133.416
				z"/>
		</g>
	</g>
</g>
<g>
</g>
<g>
</g>
<g>
</g>
<g>
</g>
<g>
</g>
<g>
</g>
<g>
</g>
<g>
</g>
<g>
</g>
<g>
</g>
<g>
</g>
<g>
</g>
<g>
</g>
<g>
</g>
<g>
</g>
</svg>
