<svg viewBox="0 0 24 24" xmlns="http://www.w3.org/2000/svg"><path d="m21.016 18.12-8.666 4.88v-3.8l5.399-2.957 3.266 1.877zm.592-.534v-10.206l-3.17 1.821v6.56l3.17 1.824zm-18.682.534 8.664 4.88v-3.8l-5.398-2.957zm-.593-.534v-10.206l3.17 1.821v6.56l-3.17 1.824zm.371-10.866 8.886-5.005v3.674l-5.693 3.118-.043.025zm18.534 0-8.888-5.005v3.674l5.693 3.118.043.025 3.15-1.812zm-9.648 11.615-5.327-2.916v-5.777l5.326 3.062v5.63zm.76 0 5.326-2.916v-5.777l-5.326 3.062v5.63zm-5.725-9.362 5.347-2.928 5.347 2.928-5.347 3.075z"/></svg>